<?xml version="1.0" encoding="UTF-8"?>
<svg version="1.1" xmlns="http://www.w3.org/2000/svg" width="640" height="640">
<path d="M0 0 C211.2 0 422.4 0 640 0 C640 211.2 640 422.4 640 640 C428.8 640 217.6 640 0 640 C0 428.8 0 217.6 0 0 Z " fill="#050505" transform="translate(0,0)"/>
<path d="M0 0 C-1.72217714 3.99545096 -4.37768146 7.24498074 -7.0625 10.625 C-7.55637207 11.25108154 -8.05024414 11.87716309 -8.55908203 12.5222168 C-11.38295092 16.07002629 -14.28957328 19.48665042 -17.375 22.8125 C-21.90276868 27.73503855 -25.89092898 33.00099294 -29.91699219 38.33251953 C-34.24662366 44.05390791 -38.71943878 49.63904658 -43.26464844 55.18994141 C-46.72680838 59.42205062 -50.1361038 63.68943355 -53.5 68 C-57.44180104 73.04858734 -61.45060073 78.03733196 -65.5 83 C-71.42167739 90.26573374 -77.27383928 97.57895907 -83 105 C-83.50982422 105.66064453 -84.01964844 106.32128906 -84.54492188 107.00195312 C-95.71105191 120.30348401 -95.71105191 120.30348401 -102 136 C-95.86441944 134.69320102 -91.98465721 132.13841055 -87.125 128.25 C-86.39249023 127.67652832 -85.65998047 127.10305664 -84.90527344 126.51220703 C-73.91596527 117.86099964 -63.18434717 108.89044155 -52.53027344 99.83154297 C-48.33605247 96.26869593 -44.080403 92.78637454 -39.8125 89.3125 C-36.68200334 86.73853608 -33.58827539 84.12430914 -30.5 81.5 C-25.66451317 77.39097129 -20.77717054 73.35335446 -15.85546875 69.34765625 C-10.51869123 64.95996366 -5.26261359 60.47614988 0 56 C1 59 1 59 0.171875 61.13671875 C-4.66549865 69.81475444 -10.26634829 77.89966652 -16 86 C-16.62696777 86.88776123 -16.62696777 86.88776123 -17.26660156 87.79345703 C-20.15599377 91.87801752 -23.07343124 95.94202038 -26 100 C-26.73839111 101.02432129 -26.73839111 101.02432129 -27.49169922 102.06933594 C-31.88446085 108.16088759 -36.28545632 114.24647927 -40.68652344 120.33203125 C-51.37063812 135.1072741 -61.97211571 149.9363266 -72.4765625 164.83984375 C-73.96213543 166.94630997 -75.44946805 169.05152032 -76.9375 171.15625 C-82.31065918 178.75763197 -87.66519095 186.37164658 -93 194 C-98.84639597 202.35898288 -104.70916756 210.70605803 -110.60498047 219.03027344 C-111.52913408 220.33515116 -112.45264522 221.64048415 -113.37548828 222.94628906 C-129.93960223 246.37259302 -147.29190997 267.02112836 -176.93359375 272.546875 C-192.18112345 274.60205669 -209.60074057 274.7892239 -224 269 C-225.00498535 268.60530518 -225.00498535 268.60530518 -226.03027344 268.20263672 C-237.05184216 263.77848589 -246.14257797 257.86793918 -255 250 C-255.91523438 249.19691406 -256.83046875 248.39382813 -257.7734375 247.56640625 C-273.01790209 233.28351558 -283.26346727 211.92980505 -284 191 C-284.0515625 189.89398438 -284.103125 188.78796875 -284.15625 187.6484375 C-284.74915171 164.17941137 -277.46469791 141.87899008 -261.375 124.5 C-259.60273568 122.64790396 -257.81006854 120.81516733 -256 119 C-255.46358887 118.43877441 -254.92717773 117.87754883 -254.37451172 117.29931641 C-250.34415238 113.13502792 -246.13944122 109.66466517 -241.375 106.375 C-240.64482666 105.86557861 -239.91465332 105.35615723 -239.16235352 104.83129883 C-230.90192114 99.13765275 -222.34639179 93.93059705 -213.78320312 88.70947266 C-210.99388053 86.99624136 -208.2212297 85.25899998 -205.453125 83.51171875 C-190.63715638 74.16027198 -175.61986407 65.18362571 -160.53526306 56.27505493 C-155.1333825 53.08340523 -149.7501372 49.86148845 -144.375 46.625 C-126.38159705 35.80809199 -108.27198698 25.19741753 -90.04980469 14.77050781 C-87.9434131 13.54768106 -85.85098928 12.30058706 -83.77050781 11.03417969 C-82.20187988 10.08526855 -82.20187988 10.08526855 -80.6015625 9.1171875 C-79.66908691 8.54339355 -78.73661133 7.96959961 -77.77587891 7.37841797 C-74.81076945 5.9060338 -72.27370284 5.37701571 -69 5 C-77.56718107 15.23882616 -87.20004659 23.37595282 -97.625 31.6875 C-103.02437709 35.99322336 -108.34948786 40.387691 -113.67456055 44.78466797 C-116.83695356 47.39584392 -119.99901132 50.00664841 -123.1875 52.5859375 C-128.43564326 56.8351444 -133.53935782 61.19312715 -138.5234375 65.75 C-140.19743362 67.27085452 -141.89090016 68.77050824 -143.6015625 70.25 C-153.58214434 78.60128317 -153.58214434 78.60128317 -159 90 C-152.56138472 88.43829331 -147.27215341 86.24227348 -141.69311523 82.6706543 C-139.16321633 81.10125005 -136.60478543 79.67803983 -133.9765625 78.28125 C-127.62108847 74.83832551 -121.4716683 71.0925238 -115.3125 67.3125 C-112.83999007 65.80100432 -110.36571789 64.29241815 -107.890625 62.78515625 C-107.25189957 62.39617157 -106.61317413 62.00718689 -105.95509338 61.60641479 C-98.527803 57.09211934 -91.04446106 52.67284838 -83.5625 48.25 C-73.50825345 42.30625325 -63.52295247 36.2725063 -53.61816406 30.08154297 C-48.78363253 27.07001227 -43.90513971 24.23954722 -38.86328125 21.5859375 C-34.82963662 19.35174961 -30.92337027 16.92134864 -27 14.5 C-21.17034426 10.90277298 -15.32187044 7.41960307 -9.26171875 4.21875 C-7.58710976 3.31637003 -5.94819725 2.34705071 -4.33203125 1.34375 C-2 0 -2 0 0 0 Z " fill="#FBFBFB" transform="translate(464,172)"/>
<path d="M0 0 C3.91734869 2.75568811 7.47037391 5.76667536 11 9 C11.92683594 9.82242187 12.85367188 10.64484375 13.80859375 11.4921875 C23.12688487 20.20304494 31.16485187 31.3561539 34 44 C34.30164063 45.27037109 34.30164063 45.27037109 34.609375 46.56640625 C38.54035812 65.23857605 34.84833798 83.79154458 25 100 C22.2877336 103.70116353 19.34444366 106.86708526 16 110 C15.25621094 110.72703125 14.51242187 111.4540625 13.74609375 112.203125 C8.28176695 117.3348406 1.88132373 123.21415666 -6 123.375 C-9 123 -9 123 -10 122 C-10.35213747 118.30255651 -10.0961114 116.20423674 -8.5 112.8125 C-6.32172804 107.91677986 -5.48411443 103.20952225 -7 98 C-10.30076786 94.10923982 -14.01087482 91.18009823 -18 88 C-19.90080505 84.1983899 -19.61641605 80.13165351 -19 76 C-17.66015625 73.09375 -17.66015625 73.09375 -16 70.125 C-12.66120039 63.9854064 -11.83237962 58.90329945 -13 52 C-15.13099438 47.02767978 -17.97628838 45.02362093 -22.7265625 42.8515625 C-25.12522999 41.95309255 -27.51915319 41.32107011 -30 40.6875 C-36.18761987 38.91688877 -40.55758132 35.49465566 -44.2421875 30.22265625 C-46.49688708 26.08904035 -47.62985984 21.77502155 -48.875 17.25 C-50.04860382 13.39451063 -50.742554 11.29045189 -53.4375 8.25 C-58.022658 6.64117263 -62.333021 6.41705645 -67.171875 6.2734375 C-70 6 -70 6 -72 4 C-72 1.6875 -72 1.6875 -71 -1 C-52.16887671 -19.39319019 -20.14485426 -11.9966408 0 0 Z " fill="#020202" transform="translate(305,295)"/>
<path d="M0 0 C3.36487686 1.72156491 5.47664612 4.09602511 7.375 7.375 C9.36056215 15.71436103 6.84600463 22.47714373 3 30 C-1.45630083 36.2011392 -6.3426114 41.86443014 -14.16015625 43.43359375 C-17.71239865 43.44088788 -19.82759461 43.10494241 -22.875 41.25 C-27.57091031 36.27785967 -27.37183288 31.81818185 -27.24609375 25.18359375 C-26.61442336 17.01198471 -21.30725934 9.07102653 -15.375 3.5625 C-10.23799603 0.18289213 -6.15866136 -1.04601181 0 0 Z " fill="#050505" transform="translate(233,319)"/>
<path d="M0 0 C4.30937597 2.34918194 7.11640065 5.47584081 9 10 C9.48459952 15.23367486 8.82735806 18.55700877 6 23 C2.27652713 26.36962231 -0.57008313 26.62543341 -5.45703125 26.48828125 C-9.68809231 25.67586553 -12.33975124 23.29508085 -15 20 C-17.56092201 15.77747642 -17.56787628 11.81834417 -17 7 C-13.57345135 -0.66894221 -7.67224338 -1.24125555 0 0 Z " fill="#060606" transform="translate(248,384)"/>
</svg>
